<svg xmlns="http://www.w3.org/2000/svg" xmlns:xlink="http://www.w3.org/1999/xlink" viewBox="0 0 1015.43 772.85"><defs><style>.cls-1{fill:url(#Degradado_sin_nombre_8);}.cls-2{fill:url(#Degradado_sin_nombre_8-2);}.cls-3{fill:url(#Degradado_sin_nombre_8-3);}.cls-4{fill:#251f21;}.cls-5{fill:#8c171d;}.cls-6{fill:none;stroke:#000;stroke-miterlimit:10;stroke-width:3px;}</style><linearGradient id="Degradado_sin_nombre_8" x1="507.71" y1="604.1" x2="507.71" y2="621.1" gradientUnits="userSpaceOnUse"><stop offset="0"/><stop offset="1" stop-color="#33549b"/></linearGradient><linearGradient id="Degradado_sin_nombre_8-2" x1="507.71" y1="385.81" x2="507.71" y2="0" xlink:href="#Degradado_sin_nombre_8"/><linearGradient id="Degradado_sin_nombre_8-3" x1="507.71" y1="397.12" x2="507.71" y2="414.12" xlink:href="#Degradado_sin_nombre_8"/></defs><g id="Capa_2" data-name="Capa 2"><g id="Capa_1-2" data-name="Capa 1"><path class="cls-1" d="M0,604.1H1015.43v17H0Z"/><path class="cls-2" d="M538,0c8.67,1.33,17.33,2.74,26,4,9.85,1.41,19.73,2.68,29.89,4V157L650,134C683.54,180.55,717,227,750.85,273.87c4.9-5.47,9.44-10.49,13.93-15.54,10.17-11.47,20.29-23,30.52-34.39a14.32,14.32,0,0,1,5-3.87c26.29-10.38,52.63-20.61,79.51-31.1L1015.43,385.4c-5.73,0-11-.61-16.06.12-11.34,1.65-17.28-4-23.24-13C943.9,323.77,911,275.52,878.28,227c-1-1.49-2.08-2.93-3.93-5.54a53.17,53.17,0,0,1-3.5,4.81q-71.21,77.44-142.4,154.9c-2.45,2.67-4.82,3.88-8.54,3.79-20.48-.5-41-.71-61.45-1-.78,0-1.57-.14-3.25-.29L727.9,301,643,184c-3.3,3.59-6.21,6.73-9.09,9.9q-84.76,93.19-169.45,186.41a10.43,10.43,0,0,1-8.56,3.75c-27.32.17-54.63.55-82,.85h-5.78c8.78-10.66,16.89-20.51,25-30.34q69.15-83.56,138.34-167c3.62-4.34,9.38-6.89,14.7-10.66l-95-131.69c-1.56,1.64-2.91,3-4.16,4.41Q351.61,157.71,256.24,265.85,205.17,323.75,154,381.59c-1.45,1.63-4,3.21-6.1,3.22C99.27,385,50.63,385,2,384.94c-.5,0-1-.11-2-.22a27.66,27.66,0,0,1,2-2.82Q120.82,249.81,239.7,117.79a20.63,20.63,0,0,1,5.38-4.33Q349,58,453,2.66c.86-.46,1.74-.89,3.07-1.56L488,45.47l1-.3c-.28-6.05-.34-12.12-.92-18.15-.36-3.69.76-5.59,4.23-7.17,12.26-5.58,24.35-11.53,36.49-17.38C530.23,1.76,531.58.83,533,0Z"/><path class="cls-3" d="M0,397.12H1015.43v17H0Z"/><path class="cls-4" d="M350.24,772.74h-4.7q-81.85,0-163.71.06a8.23,8.23,0,0,1-7.23-3.33c-13.24-16.34-26.92-32.39-39.89-49-3.89-5-8-6.23-14.17-4.88v5.68c.07,12,0,24.08.28,36.11.16,7.43,2.79,10.08,10.32,11.18,2.4.35,4.87.28,7.25.73,1,.2,1.91,1.23,2.86,1.89l-.64,1.22H66.23c-1-2.05-.6-3,2.14-3.24,16.4-1.29,17.54-2.46,17.6-18.92.08-26.94,0-53.87,0-80.83,0-2.72-.12-5.44-.31-8.16-.39-5.63-3-8.71-8.5-9.72-2.94-.54-6-.45-8.94-1-1-.19-1.84-1.42-2.76-2.19l.77-1.12h4.22c22.63,0,45.27-.27,67.93.11A301.58,301.58,0,0,1,170.43,650a36.59,36.59,0,0,1,20.24,9.67c15.69,14.32,13.17,37.39-5.45,47.68-4.93,2.74-10.49,4.34-16,6.59.61.86,1.25,1.89,2,2.82q15.71,19.08,31.44,38.12c5.64,6.79,11.55,13.53,21.15,13.94a49.56,49.56,0,0,0,15-1.79c3.79-1.05,4.83-5.05,5-8.8.17-5,.18-10,.18-15q0-39.33,0-78.66c0-9.25-3.44-12.85-12.76-13.65-1.85-.16-3.77.16-5.57-.2-1-.19-1.81-1.33-2.71-2l.72-1.08H346V684l-3.37.26c-.37-.45-.62-.63-.69-.86-.48-1.5-.93-3-1.34-4.52-3.44-12.67-11.87-20.48-24.58-22.2-11.95-1.62-24.14-1.53-36.5-2.22v50.73c11.62,2.37,22.36-2.79,26.89-13.34a56.67,56.67,0,0,0,3.51-12.32c.55-3,1.85-3.44,4.52-2.58v64.49c-2.83,1.16-4.21.47-4.5-2.72a33.34,33.34,0,0,0-1.57-6.67c-4.4-14.18-13.59-20.3-28.48-19-.16.23-.45.47-.45.7q.16,21.71.35,43.39c0,4.77,2.71,7.74,7.21,8.17,15.21,1.55,30.38,1.68,44.52-5.43,9.94-5,16.33-13.33,20.13-23.63.86-2.32,1.83-3.86,5.15-2.45C354.58,746.43,352.45,759.37,350.24,772.74ZM120.72,708.9c9.11-.86,17.69-1.09,26.08-2.52,9.23-1.58,15.85-7.36,17.26-16.75a58.74,58.74,0,0,0-.86-19.41c-1.15-6.19-5.76-10.37-11.65-12.81-10-4.12-20.33-3.35-30.86-3.14Z"/><path class="cls-5" d="M340.77,579.28c1.16-.78,2.25-2,3.52-2.26,3.59-.6,7.33-.44,10.87-1.19,5.9-1.25,8.73-4.73,9.43-10.71a47.7,47.7,0,0,0,.49-5.47c0-36.32,0-72.64-.78-109.42-.77,1.42-1.58,2.81-2.29,4.26L302,576.25c-.87,1.75-2.54,3.11-3.84,4.65-1.29-1.55-2.93-2.92-3.82-4.67Q263.81,516.16,233.43,456c-.67-1.33-1.38-2.65-2.52-4.82a27.28,27.28,0,0,0-.65,3.7c0,33.83-.06,67.65.07,101.47,0,13.48,4.65,18.44,18,20.24a19.23,19.23,0,0,1,3.47.32,17.81,17.81,0,0,1,3.27,1.91c-1.19.7-2.36,1.94-3.58,2-5,.23-10,.1-15,.1h-39.4l-.9-1.38c1.06-.89,2-2.23,3.2-2.55,2.55-.68,5.3-.58,7.86-1.23,8.75-2.2,13.16-7.84,13.17-17,.05-33.82-.1-67.65.09-101.47.07-12.27-2.12-17.65-18.69-18.42-2.12-.1-6,1.74-5-3.71,1.39-.09,2.83-.25,4.28-.25,20.33,0,40.65.09,61-.12,3.47,0,4.91,1.29,6.31,4.14q21.39,43.14,43,86.19c.81,1.62,1.67,3.22,3,5.71,1.21-2.3,2.14-3.93,3-5.63,13.8-28.62,27.64-57.22,41.3-85.91,1.57-3.29,3.3-4.54,7.06-4.5,21.31.22,42.61.11,65,1.27-1,.95-1.85,2.54-3,2.74-2.92.53-6,.17-8.93.66-8.87,1.49-12.07,5.15-12.29,14.08-.2,7.83-.14,15.67-.14,23.5q0,40.74.06,81.48c.05,14.2,4.1,18.1,18.55,18.35,1,0,2.17-.31,3,.1a15,15,0,0,1,2.86,2.6l-.93,1.1H342Z"/><path class="cls-5" d="M684.29,514.44c0,17.21-.16,34.19.09,51.16.08,5.68,3.75,9.17,9.8,10.25,3.42.61,7,.51,10.39,1.15,1.18.22,2.13,1.68,3.18,2.58l-.93,1.16h-86c-1.21-2.49-.9-3.66,2.34-3.92,19.17-1.55,20.45-2.84,20.5-22,.09-32,.13-64-.07-96-.1-16.54-2.91-19.14-19.49-19.88-2.43-.11-5,.16-3.4-3.82a12.59,12.59,0,0,1,1.84-.17c34.79.3,69.6.22,104.37,1.21a79.43,79.43,0,0,1,27.51,6.13c17.69,7.36,26.09,24.38,21.79,41.24-2.85,11.15-10.43,18.38-20.54,23-4.79,2.21-9.94,3.65-15.43,5.62.92,1.27,1.76,2.58,2.74,3.77,12.07,14.66,24,29.38,36.28,43.9,6.43,7.63,12.71,15.77,24.34,16v4.53a6.53,6.53,0,0,1-1.51.43c-16.32,0-32.65.14-49-.09a8.61,8.61,0,0,1-5.6-3c-15.88-19.06-31.87-38-47.18-57.56C695.82,514.41,691.1,512.94,684.29,514.44Zm0-72.65V506.7c10.53-1,20.68-1.26,30.57-3,11-2,18.22-9.19,20-20.29a60.24,60.24,0,0,0-.53-19.23c-1.64-9.46-7.74-16.23-17.08-18.16-10.65-2.24-21.58-2.85-33-4.23Z"/><path class="cls-5" d="M172.26,432.7v48H168c-.54-1.85-1.07-3.74-1.65-5.61C159,451.27,133.7,436,109.68,441a24.69,24.69,0,0,0-15.11,9c-4.65,6-4.83,13.95.68,19.1a69.21,69.21,0,0,0,16.17,11.4c13.09,6.5,26.75,11.85,39.85,18.33a94.11,94.11,0,0,1,19.19,12.43c16.85,14.39,17.82,38.1,2.49,54.07-15.6,16.25-35.43,20.48-56.82,18-8.45-1-16.72-4.18-24.86-7-11.23-3.86-14.27-3.17-21.92,6-1,1.19-3.17,1.39-5.36,2.27v-54c3.65-1.65,4.76.09,5.77,3.38,8.1,26.37,30.26,42.78,56.46,41.93,7.1-.23,13.85-1.85,19.71-6.15,10.87-8,11.86-20.24,2-29.43a48.5,48.5,0,0,0-11.86-8.15c-11.83-5.71-24.19-10.34-35.76-16.5-9-4.79-18.16-10.17-25.46-17.16-15.41-14.79-14.55-36.72.9-51.52,14-13.36,31.13-16.65,49.53-14.48,7,.83,13.81,3.44,20.67,5.39,3.19.9,6.23,2.33,9.42,3.23,6.55,1.84,9,.45,11.55-5.84.62-1.49,2.15-2.59,3.26-3.87Z"/><path class="cls-4" d="M795.51,647.33h69.28c.93,2.22.63,3.35-2.14,3.44a32.1,32.1,0,0,0-7.62.86c-4,1.06-5.07,3.4-3.4,7.11a77.51,77.51,0,0,0,5.08,9.46c9.09,14.4,18.29,28.72,27.46,43.07.45.71,1,1.35,1.72,2.33.63-.73,1.11-1.18,1.49-1.72,9-12.9,18.12-25.8,27-38.75a85.44,85.44,0,0,0,6.93-12.3c1.8-3.89.74-6.38-3.26-7.85-3-1.1-6.42-1.32-9.56-2.19-1.15-.32-2.09-1.39-3.11-2.11l.66-1.18h45.67c-1.66,1.72-2.45,3.34-3.44,3.44-7.14,1-11.93,5.35-15.84,10.85Q912,690.48,891.87,719.34a7.39,7.39,0,0,0-1.22,4c0,11.6,0,23.22.3,34.8.14,6.21,2.58,9,8.75,10.39a42.75,42.75,0,0,0,7.23.77c2.25.12,4.52,0,6.75,0,1.39,4.12-1.39,3.44-3.33,3.44H847.2c-4.3,0-8.6.13-12.9-.09-1,0-2-1.27-3-2,.23-.36.44-.73.66-1.09,4.39-.29,8.84-.26,13.16-1,7-1.14,9.65-4.3,9.83-11.32.24-9.58.25-19.19.21-28.78a8.54,8.54,0,0,0-1.29-4.39Q834.94,694.69,816,665.31c-1.47-2.27-3.27-4.34-4.82-6.57a18.37,18.37,0,0,0-13.58-8.06c-1.09-.14-2-1.36-3.07-2.08Z"/><path class="cls-5" d="M829.79,579.34c1-.8,2-2.13,3.16-2.31,3.44-.54,7-.32,10.4-1,7.51-1.44,10.67-5.06,10.84-12.66.26-12.32.27-24.65.28-37q.06-38,0-76V444.6c-27.2-2.35-44,.84-51.47,30.09h-4.64V435.28H951.71V474.5c-3.1,1.23-4.55.17-5.54-2.85a67.79,67.79,0,0,0-5-11.93c-4.75-8.48-12.1-13.94-21.8-14.89-7.69-.75-15.52-.15-23.88-.15V554.84c0,2.66.1,5.33.32,8,.76,9,3.42,12,12.26,13.54,3.09.54,6.31.31,9.44.68.84.1,1.58,1.12,2.37,1.71-.83.73-1.62,2-2.48,2.09-4.16.22-8.33.11-12.49.11H831Z"/><path class="cls-4" d="M786.64,647.45v33.78c-2.58,1-3.94.22-4.86-2.58A51.32,51.32,0,0,0,777.24,668a25.2,25.2,0,0,0-21.13-12.78c-5.7-.33-11.44-.06-17.67-.06-.06,1.51-.19,3-.19,4.53v90.69c0,2.15.23,4.3.22,6.44,0,8.06,3.6,10.74,11.57,12.14,2.37.41,4.86.11,7.27.39.7.08,1.28,1,1.91,1.6a8,8,0,0,1-1.85,1.72,5.22,5.22,0,0,1-2.12.08H686.07c-1.91,0-4.74.8-3.55-3.12,3.44-.28,6.88-.31,10.19-.86,7.33-1.29,10-4.35,10.07-12,.17-27.07.16-54.17.21-81.22V655.81c-23.21-2.83-37.69,1.49-43.36,23.31-.67,2.58-.75,2.58-4.88,2.3V647.54Z"/><path class="cls-4" d="M526,771.25c1-.64,2-1.72,3.13-1.87,3.1-.52,6.3-.38,9.36-1,4.61-1,7.64-3.8,8-8.8.23-3.14.52-6.29.52-9.46q.06-40.19,0-80.37c0-2.3,0-4.59-.19-6.88-.65-7.74-3.16-10.53-10.93-11.81-2.38-.4-4.88-.09-7.27-.48-1-.16-1.78-1.33-2.67-2l.7-1.1h77.57l.73,1.06c-1,.72-1.83,1.94-2.85,2.08-3.53.49-7.16.28-10.65.94-5.8,1.11-8.29,4.09-8.9,10a62.89,62.89,0,0,0-.21,6.44v83.83c.21,10.32,2.58,13,13,13.12,9.15.09,18.33.08,27.45-.64,11.49-.86,20.21-7,26-16.79a118.78,118.78,0,0,0,7.64-16.27c1.16-2.91,2.58-3.76,5.71-2.65-1.79,14.57-3.6,29.13-5.43,44H527Z"/><path class="cls-5" d="M614.22,580.93H536.34c-2.31,0-5.09.5-3.75-3.57,4.24-.46,8.56-.65,12.76-1.46,6.3-1.2,8.47-4.69,6-10.41-3.66-8.37-7.88-16.5-12.12-24.6-.56-1-2.65-1.83-4-1.84q-26.73-.18-53.46,0c-1.27,0-3.25.62-3.7,1.53-3.45,7-7.18,13.92-9.69,21.25-2.32,6.78,1.09,11.69,8.12,13.3,3.55.82,7.27.93,10.82,1.73,1.27.29,2.27,1.7,3.39,2.6l-.84,1.25H434l-1-1c1.12-1.12,2.08-3,3.39-3.24a27.22,27.22,0,0,0,18.18-13.77q9.66-16.89,18.74-34.11c16.27-30.73,32.38-61.54,48.63-92.29.85-1.61,2.38-2.87,3.6-4.29a31.57,31.57,0,0,1,3.45,4.52q29.7,57.41,59.32,114.85c2.52,4.87,5.36,9.58,8.2,14.27,3.51,5.79,8.23,9.92,15.24,11.05,1.25.2,2.26,1.85,3.38,2.83C614.8,580,614.54,580.46,614.22,580.93ZM508.9,481.13,483,530.69h51.09C525.71,514.15,517.54,498.09,508.9,481.13Z"/><path class="cls-4" d="M450.43,771.25c1.05-.65,2-1.72,3.15-1.89,3.09-.53,6.3-.42,9.35-1.11,4.55-1,6.31-4,4.43-8.36-3.19-7.33-6.88-14.46-10.55-21.56-.47-.92-2.27-1.59-3.44-1.6q-23-.16-46,0c-1.1,0-2.8.51-3.18,1.3-3,6-6.19,12-8.35,18.28-2,5.83.92,10.05,7,11.44,3.05.71,6.25.8,9.3,1.49,1.1.25,2,1.45,2.94,2.23l-.72,1.08H364.94c1.35-1.64,2-3.31,3-3.52,8.12-1.67,13.44-6.88,17.19-13.76,6.88-12.4,13.52-24.89,20.14-37.41,12.23-23.15,24.36-46.35,36.6-69.48a22.9,22.9,0,0,1,3.08-3.71,26.72,26.72,0,0,1,3,3.88q25.53,49.35,51,98.74c2.23,4.3,4.75,8.49,7.29,12.64,2.95,4.85,7,8.19,12.9,9.15,1.08.18,2,1.59,2.93,2.43l-.74,1H451.45Zm2.09-41.62-21.76-42.7-22.28,42.7Z"/><path class="cls-6" d="M427.77,143.05v58.28H390.05V185c0-7.66-.26-15.33.16-23a11.63,11.63,0,0,1,3.25-7.13C402.94,145.79,415,144,427.77,143.05Z"/><path class="cls-6" d="M438.37,143.16c12.16,2.45,22.9,6.89,31.13,16.08a8.79,8.79,0,0,1,2.41,5.1c.2,12.62.11,25.25.11,38H438.37Z"/><path class="cls-6" d="M427.8,210.57V254l-38.43-2V210.57Z"/><path class="cls-6" d="M471.77,256l-34.41-2V211l34.41,2Z"/><path class="cls-6" d="M635.2,303.33H607c0-10.44,0-20.32.09-30.21,0-.9,1.07-2,1.93-2.64,7.56-5.59,16.23-7.81,26.19-8.44Z"/><path class="cls-6" d="M669.91,305l-25.64-2V262.19c9.66.67,17.91,4.15,24.41,11.42a4.45,4.45,0,0,1,1.18,2.62C670,285.67,669.91,295.12,669.91,305Z"/><path class="cls-6" d="M606.2,340.19V309.64h30.42v30.55Z"/><path class="cls-6" d="M670.53,341.27H643.26V310.56h27.27Z"/><path class="cls-6" d="M868.58,287.09V322.3H843.87c0-8.66-.1-16.75.11-24.84,0-1.16,1.36-2.56,2.45-3.39C852.88,289.15,860.35,287.36,868.58,287.09Z"/><path class="cls-6" d="M875.07,322.89V287.14a30.51,30.51,0,0,1,20.06,9.22,5,5,0,0,1,1.61,2.89c.13,8.08.07,16.17.07,24.75Z"/><path class="cls-6" d="M844,353.31V326.94l24.53,1.11v25.26Z"/><path class="cls-6" d="M875.09,327.93l21.4,1.11v26l-21.4-1.11Z"/></g></g></svg>