<svg xmlns="http://www.w3.org/2000/svg" viewBox="0 0 1988.75 649.92"><defs><style>.cls-1{fill:#fff;}</style></defs><g id="Capa_2" data-name="Capa 2"><g id="Capa_1-2" data-name="Capa 1"><path class="cls-1" d="M997.56,0c8.67,1.33,17.33,2.74,26,4,9.85,1.41,19.73,2.68,29.89,4V157L1109.52,134c33.59,46.55,67.06,92.95,100.9,139.87,4.9-5.47,9.44-10.49,13.93-15.54,10.17-11.47,20.29-23,30.52-34.39a14.35,14.35,0,0,1,5-3.87c26.29-10.38,52.63-20.61,79.51-31.1L1475,385.4c-5.73,0-11-.61-16.06.12-11.34,1.65-17.28-4-23.24-13-32.23-48.75-65.16-97-97.85-145.48-1-1.49-2.08-2.93-3.93-5.54a53,53,0,0,1-3.5,4.81q-71.21,77.44-142.4,154.9c-2.45,2.67-4.82,3.88-8.54,3.79-20.48-.5-41-.71-61.45-1-.78,0-1.57-.14-3.25-.29L1187.47,301,1102.54,184c-3.3,3.59-6.21,6.73-9.09,9.9Q1008.69,287.09,924,380.31a10.45,10.45,0,0,1-8.56,3.75c-27.32.17-54.63.55-82,.85-1.58,0-3.17,0-5.78,0,8.78-10.66,16.89-20.51,25-30.34Q921.81,271,991,187.53c3.62-4.34,9.38-6.89,14.7-10.66l-95-131.69c-1.56,1.64-2.91,3-4.16,4.41Q811.19,157.71,715.81,265.85q-51.07,57.9-102.23,115.74c-1.45,1.63-4,3.21-6.1,3.22-48.64.18-97.28.14-145.91.13-.5,0-1-.11-2-.22a27.21,27.21,0,0,1,2-2.82q118.82-132.09,237.7-264.11a20.59,20.59,0,0,1,5.38-4.33Q808.56,58,912.54,2.66c.86-.46,1.74-.89,3.07-1.56l31.93,44.37,1-.3c-.28-6.05-.34-12.12-.92-18.15-.36-3.69.76-5.59,4.23-7.17,12.26-5.58,24.35-11.53,36.49-17.38,1.46-.71,2.81-1.64,4.21-2.47Z"/><path class="cls-1" d="M0,624.92H1984.12v25H0Z"/><path class="cls-1" d="M0,361H451.44v25H0Z"/><path class="cls-1" d="M1289.3,574.93h-5.47q-95.19,0-190.39.07c-3.65,0-6-.94-8.41-3.87-15.39-19-31.3-37.67-46.39-56.94-4.52-5.77-9.24-7.25-16.48-5.67,0,2.08,0,4.34,0,6.6.09,14,0,28,.33,42,.19,8.64,3.25,11.72,12,13,2.79.41,5.67.32,8.43.85,1.2.23,2.22,1.43,3.33,2.19l-.74,1.42H959c-1.1-2.38-.69-3.52,2.49-3.77,19.08-1.5,20.4-2.85,20.47-22,.1-31.33,0-62.65,0-94,0-3.16-.14-6.33-.36-9.49-.45-6.55-3.47-10.13-9.88-11.31-3.42-.62-7-.52-10.4-1.16-1.18-.22-2.14-1.65-3.21-2.54L959,429h4.91c26.32,0,52.65-.31,79,.13a352.7,352.7,0,0,1,37.27,3,42.51,42.51,0,0,1,23.54,11.25c18.25,16.65,15.32,43.48-6.33,55.45-5.74,3.18-12.2,5.05-18.66,7.66.71,1,1.46,2.2,2.36,3.28q18.26,22.19,36.57,44.33c6.55,7.9,13.43,15.74,24.59,16.21a57.43,57.43,0,0,0,17.44-2.08c4.4-1.22,5.61-5.87,5.75-10.23.2-5.83.21-11.66.21-17.49q0-45.75-.06-91.48c0-10.76-4-14.94-14.84-15.88-2.15-.18-4.38.19-6.47-.23-1.16-.22-2.11-1.54-3.15-2.37l.83-1.26h142.39v42.42l-3.92.3c-.43-.52-.73-.73-.81-1-.55-1.74-1.08-3.5-1.56-5.26-4-14.73-13.8-23.81-28.58-25.81-13.9-1.89-28.07-1.79-42.45-2.59v59c13.51,2.76,26-3.25,31.27-15.51a65.61,65.61,0,0,0,4.09-14.33c.64-3.54,2.15-4,5.25-3v75c-3.29,1.35-4.89.55-5.23-3.16a39.06,39.06,0,0,0-1.83-7.76c-5.12-16.49-15.8-23.61-33.12-22.16-.18.27-.52.55-.52.82q.18,25.23.41,50.46c0,5.55,3.15,9,8.38,9.5,17.69,1.8,35.33,1.95,51.77-6.32,11.56-5.82,19-15.5,23.41-27.48,1-2.69,2.13-4.48,6-2.85C1294.35,544.33,1291.87,559.38,1289.3,574.93Zm-266.92-74.24c10.59-1,20.57-1.27,30.32-2.93,10.74-1.84,18.44-8.56,20.08-19.48,1.1-7.34.41-15.21-1-22.57-1.34-7.2-6.7-12.07-13.55-14.9-11.57-4.79-23.65-3.9-35.89-3.66Z"/><path class="cls-1" d="M278.23,573.28c1.16-.78,2.25-2,3.52-2.26,3.59-.6,7.33-.44,10.87-1.19,5.9-1.25,8.73-4.73,9.43-10.71a47.7,47.7,0,0,0,.49-5.47c0-36.32,0-72.64-.78-109.42-.77,1.42-1.58,2.81-2.29,4.26q-30,60.88-60,121.76c-.87,1.75-2.54,3.11-3.84,4.65-1.29-1.55-2.93-2.92-3.82-4.67Q201.27,510.15,170.89,450c-.67-1.33-1.38-2.65-2.52-4.82a27.42,27.42,0,0,0-.65,3.7c0,33.83-.06,67.65.07,101.47.05,13.48,4.65,18.44,18,20.24a19.55,19.55,0,0,1,3.47.32,17.76,17.76,0,0,1,3.27,1.91c-1.19.7-2.36,1.94-3.58,2-5,.23-10,.1-15,.1h-39.4l-.9-1.38c1.06-.89,2-2.23,3.2-2.55,2.55-.68,5.3-.58,7.86-1.23,8.75-2.2,13.16-7.84,13.17-17,.05-33.82-.1-67.65.09-101.47.07-12.27-2.12-17.65-18.69-18.42-2.12-.1-6,1.74-5.05-3.71,1.39-.09,2.83-.25,4.28-.25,20.33,0,40.65.09,61-.12,3.47,0,4.91,1.29,6.31,4.14q21.39,43.14,43,86.19c.81,1.62,1.67,3.22,3,5.71,1.21-2.3,2.14-3.93,3-5.63,13.8-28.62,27.64-57.22,41.3-85.91,1.57-3.29,3.3-4.54,7.06-4.5,21.31.22,42.61.11,65,1.27-1,.95-1.85,2.54-3,2.74-2.92.53-6,.17-8.93.66-8.87,1.49-12.07,5.15-12.29,14.08-.2,7.83-.14,15.67-.14,23.5,0,27.16,0,54.32.06,81.48.05,14.2,4.1,18.1,18.55,18.35,1,0,2.17-.31,3,.1a14.84,14.84,0,0,1,2.86,2.6l-.93,1.1H279.42Z"/><path class="cls-1" d="M621.75,508.44c0,17.21-.16,34.19.09,51.16.08,5.68,3.75,9.17,9.8,10.25,3.42.61,7,.51,10.39,1.15,1.18.22,2.13,1.68,3.18,2.58l-.93,1.16h-86c-1.21-2.49-.9-3.66,2.34-3.92,19.17-1.55,20.45-2.84,20.5-22,.09-32,.13-64-.07-95.95-.1-16.54-2.91-19.14-19.49-19.88-2.43-.11-5,.16-3.4-3.82A12.11,12.11,0,0,1,560,429c34.79.3,69.6.22,104.37,1.21a79.41,79.41,0,0,1,27.51,6.13c17.69,7.36,26.09,24.38,21.79,41.24-2.85,11.15-10.43,18.38-20.54,23-4.79,2.21-9.94,3.65-15.43,5.62.92,1.27,1.76,2.58,2.74,3.77,12.07,14.66,24.05,29.38,36.28,43.9,6.43,7.63,12.71,15.77,24.34,16v4.53a6.41,6.41,0,0,1-1.51.43c-16.32,0-32.65.14-49-.09a8.61,8.61,0,0,1-5.6-3c-15.88-19.06-31.87-38-47.18-57.56C633.28,508.41,628.56,506.94,621.75,508.44Zm0-72.65V500.7c10.53-1,20.68-1.26,30.57-3,11-2,18.22-9.19,20-20.29a60.32,60.32,0,0,0-.53-19.23c-1.64-9.46-7.74-16.23-17.08-18.16C644.06,437.78,633.13,437.17,621.74,435.79Z"/><path class="cls-1" d="M1482.57,385.6V361.21h501.14V385.6Z"/><path class="cls-1" d="M109.72,426.7v48H105.5c-.54-1.85-1.07-3.74-1.65-5.61C96.46,445.27,71.16,430,47.14,435a24.67,24.67,0,0,0-15.11,9c-4.65,6-4.83,13.95.68,19.1a69.13,69.13,0,0,0,16.17,11.4c13.09,6.5,26.75,11.85,39.85,18.33a93.86,93.86,0,0,1,19.19,12.43c16.85,14.39,17.82,38.1,2.49,54.07-15.6,16.25-35.43,20.48-56.82,18-8.45-1-16.72-4.18-24.86-7-11.23-3.86-14.27-3.17-21.92,6-1,1.19-3.17,1.39-5.36,2.27v-54c3.65-1.65,4.76.09,5.77,3.38,8.1,26.37,30.26,42.78,56.46,41.93,7.1-.23,13.85-1.85,19.71-6.15,10.87-8,11.86-20.24,2-29.43a48.5,48.5,0,0,0-11.86-8.15c-11.83-5.71-24.19-10.34-35.76-16.5-9-4.79-18.16-10.17-25.46-17.16C-3.1,477.73-2.24,455.8,13.21,441c14-13.36,31.13-16.65,49.53-14.48,7,.83,13.81,3.44,20.67,5.39,3.19.9,6.23,2.33,9.42,3.23,6.55,1.84,9,.45,11.55-5.84.62-1.49,2.15-2.59,3.26-3.87Z"/><path class="cls-1" d="M1807.13,429.09h80.57c1.09,2.58.74,3.89-2.48,4a37.09,37.09,0,0,0-8.87,1c-4.61,1.23-5.89,3.95-3.95,8.26a89.07,89.07,0,0,0,5.91,11c10.57,16.75,21.27,33.41,31.93,50.1.52.82,1.13,1.57,2,2.7.73-.84,1.29-1.37,1.73-2,10.5-15,21.08-30,31.41-45.06a100.57,100.57,0,0,0,8.06-14.31c2.09-4.52.85-7.42-3.8-9.12-3.54-1.29-7.46-1.54-11.12-2.55-1.33-.37-2.42-1.62-3.61-2.46l.77-1.37h53.11c-1.93,2-2.85,3.89-4,4-8.3,1.17-13.88,6.23-18.42,12.62q-23.71,33.38-47.17,66.93a8.52,8.52,0,0,0-1.42,4.62c0,13.49,0,27,.35,40.47.16,7.22,3,10.46,10.17,12.08a51.15,51.15,0,0,0,8.41.9c2.62.14,5.26,0,7.85,0,1.62,4.79-1.62,4-3.87,4q-36.72,0-73.44,0c-5,0-10,.15-15-.11-1.2-.06-2.32-1.47-3.49-2.26.26-.42.51-.85.76-1.27,5.11-.34,10.28-.3,15.31-1.12,8.12-1.33,11.22-5,11.43-13.16.28-11.15.29-22.32.25-33.47a10.05,10.05,0,0,0-1.51-5.11Q1853,484.16,1830.91,450c-1.71-2.65-3.81-5.05-5.61-7.65a21.37,21.37,0,0,0-15.79-9.37c-1.27-.16-2.39-1.58-3.58-2.42Z"/><path class="cls-1" d="M767.25,573.34c1-.8,2-2.13,3.16-2.31,3.44-.54,7-.32,10.4-1,7.51-1.44,10.67-5.06,10.84-12.66.26-12.32.27-24.65.28-37q.06-38,0-76V438.6c-27.2-2.35-44,.84-51.47,30.09h-4.64V429.28H889.17V468.5c-3.1,1.23-4.55.17-5.54-2.85a67.67,67.67,0,0,0-5-11.93c-4.75-8.48-12.1-13.94-21.8-14.89-7.69-.75-15.52-.15-23.88-.15v5.16q0,52.49,0,105c0,2.66.1,5.33.32,8,.76,9,3.42,12,12.26,13.54,3.09.54,6.31.31,9.44.68.84.1,1.58,1.12,2.37,1.71-.83.73-1.62,2-2.48,2.09-4.16.22-8.33.11-12.49.11h-73.9Z"/><path class="cls-1" d="M1796.82,429.22v39.29c-3,1.16-4.58.25-5.65-3a60.53,60.53,0,0,0-5.28-12.35c-5.49-9.21-13.89-14.23-24.58-14.86-6.63-.39-13.3-.07-20.55-.07-.07,1.75-.22,3.5-.22,5.26q0,52.74,0,105.47c0,2.5.27,5,.26,7.49,0,9.38,4.18,12.49,13.45,14.12,2.76.48,5.66.13,8.46.46.81.09,1.49,1.21,2.22,1.86a9.6,9.6,0,0,1-2.15,2,6.13,6.13,0,0,1-2.47.09q-40.23,0-80.45,0c-2.22,0-5.51.93-4.13-3.63,4-.33,8-.36,11.85-1,8.53-1.5,11.66-5.06,11.71-14,.2-31.48.19-63,.25-94.46,0-7.66,0-15.32,0-22.94-27-3.3-43.84,1.73-50.43,27.1-.78,3-.87,3-5.67,2.68v-39.4Z"/><path class="cls-1" d="M1493.75,573.2c1.21-.75,2.34-2,3.64-2.18,3.6-.6,7.33-.44,10.88-1.2,5.36-1.16,8.89-4.42,9.31-10.24.27-3.65.6-7.31.6-11q.08-46.74,0-93.47c0-2.67,0-5.34-.22-8-.75-9-3.67-12.25-12.71-13.74-2.77-.46-5.68-.1-8.45-.55-1.14-.19-2.08-1.55-3.11-2.38l.81-1.27h90.22l.84,1.23c-1.1.84-2.12,2.25-3.31,2.42-4.1.57-8.33.32-12.38,1.09-6.75,1.29-9.65,4.76-10.35,11.58a71.91,71.91,0,0,0-.25,7.49q0,47,0,94c0,1.17,0,2.33,0,3.5.25,12,3,15.12,15.12,15.25,10.64.11,21.32.1,31.92-.74,13.36-1,23.5-8.11,30.24-19.53a138.23,138.23,0,0,0,8.88-18.92c1.35-3.38,3-4.37,6.65-3.08-2.09,16.94-4.19,33.88-6.32,51.12H1494.9Z"/><path class="cls-1" d="M551.68,574.93H473.8c-2.31,0-5.09.5-3.75-3.57,4.24-.46,8.56-.65,12.76-1.46,6.3-1.2,8.47-4.69,6-10.41-3.66-8.37-7.88-16.5-12.12-24.6-.56-1-2.65-1.83-4-1.84q-26.73-.18-53.46,0c-1.27,0-3.25.62-3.7,1.53-3.45,7-7.18,13.92-9.69,21.25-2.32,6.78,1.09,11.69,8.12,13.3,3.55.82,7.27.93,10.82,1.73,1.27.29,2.27,1.7,3.39,2.6l-.84,1.25H371.43l-1-1c1.12-1.12,2.08-3,3.39-3.24C382,568.61,388,563.77,392,556.7q9.66-16.89,18.74-34.11c16.27-30.73,32.38-61.54,48.63-92.29.85-1.61,2.38-2.87,3.6-4.29a32.18,32.18,0,0,1,3.45,4.52q29.7,57.41,59.32,114.85c2.52,4.87,5.36,9.58,8.2,14.27,3.51,5.79,8.23,9.92,15.24,11.05,1.25.2,2.26,1.85,3.38,2.83C552.26,574,552,574.46,551.68,574.93Zm-105.32-99.8L420.5,524.69h51.09C463.17,508.15,455,492.09,446.36,475.13Z"/><path class="cls-1" d="M1405.82,573.2c1.22-.76,2.35-2,3.66-2.2,3.59-.62,7.33-.49,10.87-1.29,5.3-1.19,7.34-4.71,5.16-9.72-3.72-8.53-8-16.82-12.27-25.08-.55-1.06-2.64-1.85-4-1.86q-26.73-.18-53.47,0c-1.27,0-3.25.6-3.7,1.52-3.46,7-7.19,13.91-9.7,21.25-2.33,6.79,1.07,11.69,8.1,13.31,3.55.82,7.27.93,10.82,1.73,1.27.29,2.28,1.69,3.42,2.59l-.84,1.26H1306.4c1.57-1.91,2.35-3.85,3.49-4.09,9.45-1.94,15.63-8,20-16,8-14.42,15.72-28.95,23.42-43.51,14.22-26.92,28.33-53.9,42.56-80.81.86-1.62,2.38-2.88,3.59-4.31a31,31,0,0,1,3.47,4.51q29.7,57.39,59.32,114.84c2.6,5,5.53,9.87,8.48,14.69,3.44,5.64,8.15,9.53,15,10.65,1.26.2,2.28,1.84,3.41,2.82l-.86,1.2H1407Zm2.43-48.4-25.31-49.66c-8.81,16.9-17.25,33.06-25.91,49.66Z"/><path class="cls-1" d="M887.34,143.05v58.28H849.62V185c0-7.66-.26-15.33.16-23a11.63,11.63,0,0,1,3.25-7.13C862.51,145.79,874.61,144,887.34,143.05Z"/><path class="cls-1" d="M897.94,143.16c12.16,2.45,22.9,6.89,31.13,16.08a8.82,8.82,0,0,1,2.41,5.1c.2,12.62.11,25.25.11,38H897.94Z"/><path class="cls-1" d="M887.37,210.57V254l-38.43-2V210.57Z"/><path class="cls-1" d="M931.34,256l-34.41-2V211l34.41,2Z"/><path class="cls-1" d="M1094.77,303.33h-28.21c0-10.44,0-20.32.09-30.21,0-.9,1.07-2,1.93-2.64,7.56-5.59,16.23-7.81,26.19-8.44Z"/><path class="cls-1" d="M1129.48,305l-25.64-2V262.19c9.66.67,17.91,4.15,24.41,11.42a4.43,4.43,0,0,1,1.18,2.62C1129.52,285.67,1129.48,295.12,1129.48,305Z"/><path class="cls-1" d="M1065.77,340.19V309.64h30.42v30.55Z"/><path class="cls-1" d="M1130.1,341.27h-27.27V310.56h27.27Z"/><path class="cls-1" d="M1328.15,287.09V322.3h-24.71c0-8.66-.1-16.75.11-24.84,0-1.16,1.36-2.56,2.45-3.39C1312.45,289.15,1319.92,287.36,1328.15,287.09Z"/><path class="cls-1" d="M1334.64,322.89V287.14a30.51,30.51,0,0,1,20.06,9.22,5,5,0,0,1,1.61,2.89c.13,8.08.07,16.17.07,24.75Z"/><path class="cls-1" d="M1303.61,353.31V326.94l24.53,1.11v25.26Z"/><path class="cls-1" d="M1334.66,327.93l21.4,1.11V355l-21.4-1.11Z"/></g></g></svg>